<svg xmlns="http://www.w3.org/2000/svg" xmlns:xlink="http://www.w3.org/1999/xlink" width="408.821" height="82.006" viewBox="0 0 408.821 82.006">
  <defs>
    <clipPath id="clip-path">
      <rect id="Retângulo_1285" data-name="Retângulo 1285" width="408.821" height="82.006" fill="#fff" stroke="#494949" stroke-width="1"/>
    </clipPath>
  </defs>
  <g id="Grupo_1989" data-name="Grupo 1989" transform="translate(0)">
    <g id="Grupo_992" data-name="Grupo 992" transform="translate(0)" clip-path="url(#clip-path)">
      <path id="Caminho_4040" data-name="Caminho 4040" d="M14.082,81.891H0l25.674-65c2.708-6.824,7.691-9.424,15.383-9.424,7.583,0,12.566,2.6,15.166,9.424l24.7,65H66.732L44.523,23.068a3.483,3.483,0,0,0-3.575-2.492,3.7,3.7,0,0,0-3.683,2.492Z" transform="translate(0 0.115)" fill="#fff" stroke="#494949" stroke-width="1"/>
      <path id="Caminho_4041" data-name="Caminho 4041" d="M128.614,24.432V35.481H108.464c-5.091,0-7.367,2.383-7.367,7.367V81.63H89.615V41.115c0-11.483,4.225-16.683,15.492-16.683Z" transform="translate(1.378 0.375)" fill="#fff" stroke="#494949" stroke-width="1"/>
      <path id="Caminho_4042" data-name="Caminho 4042" d="M150.6,0V48.532h5.308c9.1,0,10.941-.434,14.3-6.5l9.533-17.225H192.2l-9.967,17.983c-2.817,5.091-5.525,8.233-10.182,10.182,5.416,1.517,8.233,5.092,11.7,11.05l10.292,17.982H181.148l-9.532-16.9c-3.359-5.958-5.633-6.934-15.708-6.934H150.6V82.006H139.117V0Z" transform="translate(2.139 0)" fill="#fff" stroke="#494949" stroke-width="1"/>
      <path id="Caminho_4043" data-name="Caminho 4043" d="M237.735,24.432H203.393V35.481h34.232c6.284,0,8.775,3.467,8.775,7.908v4.334h-.1c0,.031.009.059.009.091v9.008h.092V67.547c0,2.059-.866,2.925-3.142,2.925H219.21c-5.741,0-8.017-2.708-8.017-6.933s2.167-6.717,8.233-6.717h24.3V47.814c0-.032.007-.06.009-.091H219.21c-14.083,0-19.283,6.067-19.283,16.466,0,10.833,5.633,17.441,19.174,17.441h26.757c9.642,0,11.809-3.25,11.809-11.483V43.281c0-10.833-5.633-18.849-19.933-18.849" transform="translate(3.074 0.375)" fill="#fff" stroke="#494949" stroke-width="1"/>
      <path id="Caminho_4044" data-name="Caminho 4044" d="M331.764,0V57.523c0,16.466-7.365,24.483-21.015,24.483H294.933c-15.274,0-24.808-9.316-24.808-28.6s9.533-28.6,24.808-28.6h25.241V0Zm-11.59,56.982V35.857H296.016c-9.858,0-14.3,5.2-14.3,17.55s4.441,17.441,14.3,17.441H307.39c9.208,0,12.783-4.116,12.783-13.866" transform="translate(4.154 0)" fill="#fff" stroke="#494949" stroke-width="1"/>
      <path id="Caminho_4045" data-name="Caminho 4045" d="M356.923,62.564V58.448h.034V49.456h-.034V43.39c0-4.441,2.492-7.908,8.775-7.908h18.416c5.633,0,8.124,2.817,8.124,7.149,0,4.225-2.274,6.824-8.449,6.824H359.538v8.992h24.576c14.082,0,19.391-5.958,19.391-16.466,0-11.049-5.741-17.55-19.282-17.55H365.7c-14.3,0-19.933,8.016-19.933,18.849v19.5c0,10.833,5.633,18.849,19.933,18.849h34.991V70.473H365.7c-6.283,0-8.775-3.359-8.775-7.909" transform="translate(5.317 0.375)" fill="#fff" stroke="#494949" stroke-width="1"/>
    </g>
  </g>
</svg>
